# xmcd
#
# Track frame offsets: 
#        150
#        17501
#        28308
#        45559
#        60426
#        77715
#        97310
#        118758
#        135410
#        154495
#        177786
#        194208
#        221659
#
# Disc length: 3681 seconds
#
# Revision: 0
# Processed by: cddbd v1.5.2PL0 Copyright (c) Steve Scherf et al.
# Submitted via: ExactAudioCopy v0.95b4
#
DISCID=ba0e5f0d
DTITLE=ZEN - ZEN (Edición Limitada)
DYEAR=2004
DGENRE=Rock
TTITLE0=Un Dia Mas
TTITLE1=Arrastrándome
TTITLE2=Identidad
TTITLE3=Cielo
TTITLE4=Desaparecer
TTITLE5=Vuelve
TTITLE6=Aun Me Tienes
TTITLE7=Sol
TTITLE8=Sobrevivir
TTITLE9=Seguiré
TTITLE10=Abismo
TTITLE11=Aun Me Tienes (Versión Acústica)
TTITLE12=Pista Ineractiva
EXTD=
EXTT0=
EXTT1=
EXTT2=
EXTT3=
EXTT4=
EXTT5=
EXTT6=
EXTT7=
EXTT8=
EXTT9=
EXTT10=
EXTT11=
EXTT12=
PLAYORDER=
